# xmcd
#
# Track frame offsets:
# 255
# 25797
# 49321
# 70419
# 107033
# 127086
# 145186
# 173958
# 188233
#
# Disc length: 3220 seconds
#
# Revision: 0
# Processed by: cddbd v1.4PL0 Copyright (c) Steve Scherf et al.
# Submitted via: Audion 3.0.2 (http://www.panic.com/audion/)
#
DISCID=860c9109
DTITLE=Cuttin Heads - Cuttin Heads
DYEAR=1900
DGENRE=
TTITLE0=Deliverance
TTITLE1=The Festival
TTITLE2=None
TTITLE3=Farewell to Leadbetter
TTITLE4=GumShoe
TTITLE5=Larry
TTITLE6=I Aint Ashamed
TTITLE7=Dirt City
TTITLE8=Club Cloud Nine
EXTD=
EXTT0=
EXTT1=
EXTT2=
EXTT3=
EXTT4=
EXTT5=
EXTT6=
EXTT7=
EXTT8=
PLAYORDER=
